Coordinates
version=1
nRows=12
nColumns=42
inDegrees=yes

Units are S.I. units (second, meters, Newtons, ...)
If the header above contains a line with 'inDegrees', this indicates whether rotational values are in degrees (yes) or radians (no).

endheader
time	pelvis_tilt	pelvis_list	pelvis_rotation	pelvis_tx	pelvis_ty	pelvis_tz	hip_flexion_r	hip_adduction_r	hip_rotation_r	knee_angle_r	knee_adduction_r	knee_angle_r_beta	ankle_angle_r	subtalar_angle_r	mtp_angle_r	hip_flexion_l	hip_adduction_l	hip_rotation_l	knee_angle_l	knee_adduction_l	knee_angle_l_beta	ankle_angle_l	subtalar_angle_l	mtp_angle_l	lumbar_extension	lumbar_bending	lumbar_rotation	arm_flex_r	arm_add_r	arm_rot_r	elbow_flex_r	pro_sup_r	wrist_flex_r	wrist_dev_r	arm_flex_l	arm_add_l	arm_rot_l	elbow_flex_l	pro_sup_l	wrist_flex_l	wrist_dev_l
     13.42000000	     -7.06993216	      3.65933953	     -4.06107984	      0.77170824	      0.96416358	      0.46129058	     30.15606820	     -4.34223417	      2.81862166	     71.77092148	      6.25096954	      1.25263889	    -10.84435970	    -10.03809329	    -11.33580610	     16.73229771	      2.58135375	     -9.22618119	     20.03881371	      6.43431604	      0.34974328	      4.15200086	     -1.76664493	     -7.42684152	      0.00000000	      0.00000000	      0.00000000	      0.00000000	     -8.12275169	      0.00000000	     73.17494865	     90.00000001	      0.00000000	      0.00000000	      0.00000000	     -8.12275169	      0.00000000	     73.17494865	     90.00000001	      0.00000000	      0.00000000
     13.42500000	     -7.16020583	      3.53519430	     -4.00215462	      0.77142907	      0.96476607	      0.46123301	     30.82594800	     -4.13440345	      2.72165066	     71.27533743	      6.25096954	      1.24398931	    -10.29283829	    -10.02059852	    -11.46871366	     16.28501224	      2.47258815	     -9.17016779	     19.74709770	      6.43431604	      0.34465187	      4.29653673	     -1.64277860	     -7.43506430	      0.00000000	      0.00000000	      0.00000000	      0.00000000	     -8.12702459	      0.00000000	     73.17715410	     90.00000001	      0.00000000	      0.00000000	      0.00000000	     -8.12702459	      0.00000000	     73.17715410	     90.00000001	      0.00000000	      0.00000000
     13.43000000	     -7.08045281	      3.24601937	     -3.89673511	      0.77139084	      0.96579515	      0.46107110	     31.19435890	     -3.82639744	      2.49197112	     70.61952731	      6.25096954	      1.23254327	     -9.56586242	     -9.31774773	    -11.72893693	     15.55822753	      2.22961437	     -8.87584354	     19.31459169	      6.43431604	      0.33710322	      4.43019292	     -1.46886647	     -7.34969324	      0.00000000	      0.00000000	      0.00000000	      0.00000000	     -8.14618006	      0.00000000	     73.18705603	     90.00000001	      0.00000000	      0.00000000	      0.00000000	     -8.14618006	      0.00000000	     73.18705603	     90.00000001	      0.00000000	      0.00000000
     13.43500000	     -7.19300987	      3.06338954	     -3.84932319	      0.77111322	      0.96636432	      0.46102252	     31.82408772	     -3.57702434	      2.36154984	     69.94708482	      6.25096954	      1.22080693	     -8.95784066	     -9.04131347	    -11.83152393	     15.10792121	      2.04550658	     -8.83225871	     18.96816082	      6.43431604	      0.33105686	      4.57547905	     -1.28780934	     -7.32571248	      0.00000000	      0.00000000	      0.00000000	      0.00000000	     -8.15688037	      0.00000000	     73.19257072	     90.00000001	      0.00000000	      0.00000000	      0.00000000	     -8.15688037	      0.00000000	     73.19257072	     90.00000001	      0.00000000	      0.00000000
     13.44000000	     -7.27229672	      2.88999216	     -3.77372711	      0.77094597	      0.96702353	      0.46086748	     32.35377838	     -3.36725339	      2.17958077	     69.17481406	      6.25096954	      1.20732826	     -8.39853549	     -8.66104433	    -11.96186436	     14.61758269	      1.88219222	     -8.77620794	     18.62655039	      6.43431604	      0.32509463	      4.70449913	     -1.03545748	     -7.31677211	      0.00000000	      0.00000000	      0.00000000	      0.00000000	     -8.16500004	      0.00000000	     73.19674721	     90.00000001	      0.00000000	      0.00000000	      0.00000000	     -8.16500004	      0.00000000	     73.19674721	     90.00000001	      0.00000000	      0.00000000
     13.44500000	     -7.26765107	      2.72814629	     -3.74558706	      0.77091781	      0.96777987	      0.46072761	     32.76844791	     -3.20426873	      1.99042338	     68.32625321	      6.25096954	      1.19251808	     -7.82436169	     -8.10593057	    -12.07232958	     13.98431741	      1.72666989	     -8.73554651	     18.19414414	      6.43431604	      0.31754772	      4.82685674	     -0.79002572	     -7.26455809	      0.00000000	      0.00000000	      0.00000000	      0.00000000	     -8.17610275	      0.00000000	     73.20245456	     90.00000001	      0.00000000	      0.00000000	      0.00000000	     -8.17610275	      0.00000000	     73.20245456	     90.00000001	      0.00000000	      0.00000000
     13.45000000	     -6.98820283	      2.59465776	     -3.65976873	      0.77110457	      0.96897265	      0.46052934	     32.79894476	     -3.12348740	      1.76334664	     67.34323486	      6.25096954	      1.17536118	     -7.18308425	     -7.52143248	    -12.04794399	     13.01329400	      1.63434348	     -8.66801225	     17.71232915	      6.43431604	      0.30913846	      4.90548020	     -0.47633516	     -7.18021722	      0.00000000	      0.00000000	      0.00000000	      0.00000000	     -8.19780115	      0.00000000	     73.21359248	     90.00000001	      0.00000000	      0.00000000	      0.00000000	     -8.19780115	      0.00000000	     73.21359248	     90.00000001	      0.00000000	      0.00000000
     13.45500000	     -6.84412055	      2.53966546	     -3.50867624	      0.77087842	      0.96996070	      0.46014545	     33.02241058	     -3.18263532	      1.45371414	     66.35892233	      6.25096954	      1.15818168	     -6.69953041	     -7.12267321	    -11.93993546	     12.22235966	      1.63763082	     -8.53293789	     17.18521175	      6.43431604	      0.29993853	      4.89109341	     -0.36326554	     -7.08484425	      0.00000000	      0.00000000	      0.00000000	      0.00000000	     -8.22016541	      0.00000000	     73.22503286	     90.00000001	      0.00000000	      0.00000000	      0.00000000	     -8.22016541	      0.00000000	     73.22503286	     90.00000001	      0.00000000	      0.00000000
     13.46000000	     -6.89963438	      2.67287001	     -3.42323511	      0.77051812	      0.97020161	      0.46022340	     33.54477958	     -3.31715010	      1.36974520	     65.46028284	      6.25096954	      1.14249746	     -6.49354978	     -7.04023290	    -11.86720583	     11.85673594	      1.79210502	     -8.66920072	     17.10726023	      6.43431604	      0.29857802	      5.03578049	     -0.31906331	     -7.07322837	      0.00000000	      0.00000000	      0.00000000	      0.00000000	     -8.22558288	      0.00000000	     73.22779399	     90.00000001	      0.00000000	      0.00000000	      0.00000000	     -8.22558288	      0.00000000	     73.22779399	     90.00000001	      0.00000000	      0.00000000
     13.46500000	     -7.10282083	      2.27241230	     -3.36118279	      0.77073514	      0.97090497	      0.46030649	     33.92515395	     -2.85425552	      1.08927172	     64.13101384	      6.25096954	      1.11929734	     -6.12736170	     -6.73825077	    -11.94952049	     11.33604330	      1.32882935	     -8.45380768	     16.45681080	      6.43431604	      0.28722553	      5.03947696	      0.10803478	     -7.06672712	      0.00000000	      0.00000000	      0.00000000	      0.00000000	     -8.23295218	      0.00000000	     73.23154984	     90.00000001	      0.00000000	      0.00000000	      0.00000000	     -8.23295218	      0.00000000	     73.23154984	     90.00000001	      0.00000000	      0.00000000
     13.47000000	     -6.83626036	      2.05259947	     -3.20802166	      0.77052596	      0.97189493	      0.46025338	     33.85344374	     -2.70917776	      0.73118924	     62.85397399	      6.25096954	      1.09700879	     -5.99333104	     -6.81297368	    -11.93996884	     10.48896435	      1.10760862	     -8.40941520	     16.15429147	      6.43431604	      0.28194557	      5.10189044	      0.50444665	     -7.16476300	      0.00000000	      0.00000000	      0.00000000	      0.00000000	     -8.25641966	      0.00000000	     73.24350114	     90.00000001	      0.00000000	      0.00000000	      0.00000000	     -8.25641966	      0.00000000	     73.24350114	     90.00000001	      0.00000000	      0.00000000
     13.47500000	     -6.99699141	      1.94755301	     -3.13784350	      0.77043627	      0.97222137	      0.46026944	     34.27970570	     -2.60317152	      0.54483189	     61.58788926	      6.25096954	      1.07491145	     -5.78017121	     -6.62976223	    -11.96567492	     10.09743598	      0.97876758	     -8.43516259	     15.80620951	      6.43431604	      0.27587040	      5.16635146	      0.74416804	     -7.17674538	      0.00000000	      0.00000000	      0.00000000	      0.00000000	     -8.26408292	      0.00000000	     73.24739021	     90.00000001	      0.00000000	      0.00000000	      0.00000000	     -8.26408292	      0.00000000	     73.24739021	     90.00000001	      0.00000000	      0.00000000
